<svg width="99" height="131" viewBox="0 0 99 131" fill="none" xmlns="http://www.w3.org/2000/svg">
<path d="M96.5381 98.3079V129.683H17.933C8.97704 129.683 1.69006 122.645 1.69006 113.996C1.69006 105.347 8.97704 98.3089 17.933 98.3089L96.5381 98.3079Z" fill="#F2F2F2"/>
<path d="M98.468 129.441C98.468 129.761 98.3409 130.068 98.1145 130.294C97.8881 130.521 97.5811 130.648 97.261 130.648H16.531C12.1464 130.648 7.94148 128.906 4.84113 125.806C1.74077 122.705 -0.000976562 118.5 -0.000976562 114.116C-0.000976562 109.731 1.74077 105.526 4.84113 102.426C7.94148 99.3257 12.1464 97.5839 16.531 97.5839H97.261C97.575 97.593 97.8731 97.7241 98.0919 97.9493C98.3108 98.1746 98.4333 98.4763 98.4333 98.7904C98.4333 99.1045 98.3108 99.4063 98.0919 99.6315C97.8731 99.8568 97.575 99.9879 97.261 99.9969H16.531C14.6669 99.9813 12.8182 100.335 11.0915 101.037C9.36482 101.74 7.79432 102.777 6.47064 104.09C5.14697 105.402 4.09633 106.964 3.37933 108.685C2.66234 110.406 2.29318 112.251 2.29318 114.115C2.29318 115.98 2.66234 117.825 3.37933 119.546C4.09633 121.267 5.14697 122.828 6.47064 124.141C7.79432 125.454 9.36482 126.491 11.0915 127.194C12.8182 127.896 14.6669 128.25 16.531 128.234H97.261C97.5811 128.234 97.8881 128.361 98.1145 128.587C98.3409 128.814 98.468 129.121 98.468 129.441Z" fill="#FF9100"/>
<path d="M96.538 105.549H12.068C12.004 105.549 11.9426 105.523 11.8973 105.478C11.852 105.433 11.8265 105.371 11.8265 105.307C11.8265 105.243 11.852 105.182 11.8973 105.137C11.9426 105.091 12.004 105.066 12.068 105.066H96.538C96.6021 105.066 96.6635 105.091 96.7088 105.137C96.7541 105.182 96.7795 105.243 96.7795 105.307C96.7795 105.371 96.7541 105.433 96.7088 105.478C96.6635 105.523 96.6021 105.549 96.538 105.549Z" fill="#CCCCCC"/>
<path d="M96.538 111.341H12.068C12.004 111.341 11.9426 111.315 11.8973 111.27C11.852 111.225 11.8265 111.163 11.8265 111.099C11.8265 111.035 11.852 110.974 11.8973 110.929C11.9426 110.883 12.004 110.858 12.068 110.858H96.538C96.6021 110.858 96.6635 110.883 96.7088 110.929C96.7541 110.974 96.7795 111.035 96.7795 111.099C96.7795 111.163 96.7541 111.225 96.7088 111.27C96.6635 111.315 96.6021 111.341 96.538 111.341Z" fill="#CCCCCC"/>
<path d="M96.538 117.133H12.068C12.004 117.133 11.9426 117.107 11.8973 117.062C11.852 117.017 11.8265 116.955 11.8265 116.891C11.8265 116.827 11.852 116.766 11.8973 116.721C11.9426 116.675 12.004 116.65 12.068 116.65H96.538C96.6021 116.65 96.6635 116.675 96.7088 116.721C96.7541 116.766 96.7795 116.827 96.7795 116.891C96.7795 116.955 96.7541 117.017 96.7088 117.062C96.6635 117.107 96.6021 117.133 96.538 117.133Z" fill="#CCCCCC"/>
<path d="M96.538 122.926H12.068C12.004 122.926 11.9426 122.9 11.8973 122.855C11.852 122.81 11.8265 122.748 11.8265 122.684C11.8265 122.62 11.852 122.559 11.8973 122.514C11.9426 122.468 12.004 122.443 12.068 122.443H96.538C96.6021 122.443 96.6635 122.468 96.7088 122.514C96.7541 122.559 96.7795 122.62 96.7795 122.684C96.7795 122.748 96.7541 122.81 96.7088 122.855C96.6635 122.9 96.6021 122.926 96.538 122.926Z" fill="#CCCCCC"/>
<path d="M63.707 95.0109H60.948L59.636 84.3689H63.708L63.707 95.0109Z" fill="#FFB8B8"/>
<path d="M58.976 94.2219H64.297V97.5719H55.626C55.626 96.6834 55.979 95.8313 56.6072 95.2031C57.2355 94.5748 58.0876 94.2219 58.976 94.2219Z" fill="#2F2E41"/>
<path d="M35.519 95.0109H32.76L31.448 84.3689H35.52L35.519 95.0109Z" fill="#FFB8B8"/>
<path d="M30.789 94.2219H36.11V97.5719H27.439C27.439 96.6834 27.792 95.8313 28.4202 95.2031C29.0485 94.5748 29.9006 94.2219 30.789 94.2219Z" fill="#2F2E41"/>
<path d="M44.735 16.0699V14.8629C44.735 13.8408 44.9364 12.8288 45.3275 11.8845C45.7186 10.9402 46.2919 10.0822 47.0146 9.35948C47.7373 8.63676 48.5953 8.06348 49.5396 7.67235C50.4839 7.28122 51.496 7.0799 52.518 7.0799C54.5822 7.0799 56.5619 7.89989 58.0215 9.35948C59.481 10.8191 60.301 12.7987 60.301 14.8629V16.0699C60.301 17.558 59.7099 18.9852 58.6576 20.0375C57.6054 21.0897 56.1782 21.6809 54.69 21.6809H50.346C48.8579 21.6809 47.4307 21.0897 46.3784 20.0375C45.3262 18.9852 44.735 17.558 44.735 16.0699Z" fill="#2F2E41"/>
<path d="M52.519 22.0969C55.7929 22.0969 58.447 19.4429 58.447 16.1689C58.447 12.895 55.7929 10.2409 52.519 10.2409C49.2451 10.2409 46.591 12.895 46.591 16.1689C46.591 19.4429 49.2451 22.0969 52.519 22.0969Z" fill="#FFB8B8"/>
<path d="M20.276 36.5409C20.5162 36.3136 20.8034 36.1417 21.1172 36.0373C21.431 35.9329 21.7638 35.8986 22.0924 35.9367C22.4209 35.9749 22.737 36.0846 23.0186 36.258C23.3002 36.4315 23.5403 36.6646 23.722 36.9409L28.803 35.9799L30.14 38.9249L22.945 40.1819C22.4599 40.4567 21.8908 40.5439 21.3457 40.4268C20.8006 40.3097 20.3175 39.9965 19.9881 39.5466C19.6587 39.0968 19.506 38.5417 19.5588 37.9867C19.6117 37.4317 19.8666 36.9154 20.275 36.5359L20.276 36.5409Z" fill="#FFB8B8"/>
<path d="M47.897 25.8289L47.963 25.9289L39.63 31.4179L25.57 35.9079C25.3841 35.9678 25.2246 36.0901 25.1186 36.2542C25.0125 36.4182 24.9664 36.6138 24.988 36.8079L25.295 39.4499C25.3086 39.5668 25.3464 39.6797 25.4061 39.7812C25.4658 39.8826 25.5461 39.9705 25.6417 40.0391C25.7374 40.1078 25.8464 40.1557 25.9616 40.1797C26.0769 40.2038 26.1959 40.2035 26.311 40.1789L39.544 37.3429C40.1844 37.2065 40.7899 36.94 41.323 36.5599L50.684 29.8999C51.2107 29.5391 51.5725 28.9838 51.6898 28.3562C51.8071 27.7286 51.6703 27.0801 51.3095 26.5534C50.9487 26.0267 50.3934 25.6649 49.7658 25.5476C49.1382 25.4303 48.4897 25.5671 47.963 25.9279L47.897 25.8289Z" fill="#D67E09"/>
<path d="M60.997 91.9909C60.7849 91.9913 60.5774 91.9298 60.3998 91.814C60.2222 91.6982 60.0822 91.5331 59.997 91.3389L47.348 60.0849C47.3185 60.0171 47.2689 59.9599 47.2059 59.9211C47.143 59.8823 47.0696 59.8637 46.9958 59.8678C46.9219 59.872 46.8511 59.8986 46.7928 59.9442C46.7346 59.9898 46.6917 60.0522 46.67 60.1229L36.352 90.5489C36.3087 90.6907 36.2368 90.8221 36.1408 90.935C36.0448 91.0479 35.9267 91.14 35.7938 91.2056C35.6609 91.2712 35.5159 91.3089 35.3679 91.3163C35.2198 91.3238 35.0718 91.3008 34.933 91.2489L31.473 89.9489C31.285 89.8793 31.12 89.7588 30.9964 89.601C30.8728 89.4431 30.7955 89.2541 30.773 89.0549C29.216 75.4929 42.792 41.2619 42.929 40.9169L42.967 40.8169L55.342 43.5549L55.368 43.5829C60.305 48.9689 64.368 82.9419 65.127 89.6979C65.1555 89.942 65.1001 90.1885 64.9697 90.3968C64.8394 90.6051 64.642 90.7628 64.41 90.8439L61.355 91.9239C61.2403 91.9664 61.1192 91.9891 60.997 91.9909Z" fill="#374B5C"/>
<path d="M50.334 44.6619C47.334 44.6619 43.993 44.0619 42.964 41.5969L42.94 41.5399L42.972 41.4869C43.784 40.1539 44.858 37.8809 44.281 37.4549C43.6866 36.9611 43.2253 36.3265 42.939 35.6088C42.6527 34.8911 42.5506 34.1131 42.642 33.3459C42.7254 31.3062 43.4373 29.3422 44.6803 27.7228C45.9232 26.1035 47.6363 24.9079 49.585 24.2999C50.7143 23.9385 51.8636 23.6427 53.027 23.4139C53.8753 23.2427 54.7509 23.2615 55.591 23.469C56.4312 23.6765 57.2149 24.0675 57.886 24.6139C58.5663 25.1633 59.1165 25.8566 59.4969 26.6441C59.8773 27.4315 60.0785 28.2934 60.086 29.1679C60.128 33.5439 59.455 39.6379 56.004 43.8219C55.8425 44.0161 55.6176 44.1471 55.369 44.1919C53.7072 44.4923 52.0227 44.6496 50.334 44.6619Z" fill="#D67E09"/>
<path d="M49.219 44.5009C49.3822 43.9155 49.7699 43.4182 50.2978 43.1171C50.8257 42.816 51.4511 42.7354 52.038 42.8929C52.1577 42.9263 52.2744 42.9694 52.387 43.0219L56.245 39.5109L58.928 41.3189L53.41 46.2019C53.1612 46.6515 52.7689 47.0047 52.2959 47.2054C51.8228 47.406 51.2962 47.4425 50.8 47.3089C50.511 47.2297 50.2406 47.094 50.0043 46.9096C49.7681 46.7253 49.5707 46.4959 49.4237 46.2347C49.2767 45.9736 49.1829 45.6859 49.1478 45.3883C49.1126 45.0907 49.1368 44.7891 49.219 44.5009Z" fill="#FFB8B8"/>
<path d="M55.634 44.5429C55.3836 44.5431 55.1408 44.4565 54.947 44.2979L53.426 43.0549C53.2997 42.9512 53.1983 42.8204 53.1296 42.6722C53.0608 42.5239 53.0264 42.362 53.0289 42.1986C53.0314 42.0352 53.0707 41.8745 53.144 41.7284C53.2173 41.5823 53.3226 41.4546 53.452 41.3549L59.8341 36.4609C59.9097 36.4025 59.9593 36.3166 59.972 36.2219C59.9847 36.1271 59.9596 36.0312 59.902 35.9549L55.963 30.7479C55.5054 30.145 55.2759 29.3996 55.3151 28.6438C55.3542 27.8879 55.6596 27.1703 56.177 26.6179C56.7224 26.0299 57.4688 25.6681 58.2683 25.6042C59.0678 25.5403 59.8621 25.7789 60.494 26.2729L60.519 26.2989L64.632 32.1879C65.0767 32.5367 65.4348 32.9835 65.6782 33.4935C65.9217 34.0035 66.044 34.5629 66.0356 35.128C66.0272 35.6931 65.8883 36.2485 65.6297 36.7511C65.3711 37.2536 64.9999 37.6895 64.545 38.0249L56.28 44.3329C56.0926 44.47 55.8663 44.5436 55.634 44.5429Z" fill="#D67E09"/>
<path d="M47.268 14.5009V11.5629L52.519 9.2699L57.525 11.5629V14.5039C57.525 14.632 57.4741 14.7548 57.3836 14.8454C57.293 14.936 57.1701 14.9869 57.042 14.9869H47.75C47.6864 14.9868 47.6235 14.9741 47.5648 14.9496C47.5061 14.925 47.4528 14.8892 47.4081 14.844C47.3633 14.7989 47.3278 14.7453 47.3038 14.6864C47.2798 14.6275 47.2676 14.5645 47.268 14.5009Z" fill="#2F2E41"/>
<path d="M52.277 7.46991C51.976 6.20774 52.138 4.87943 52.7338 3.72668C53.3295 2.57394 54.3193 1.67338 55.523 1.1889C56.7478 0.756883 58.064 0.651592 59.3419 0.88342C60.6197 1.11525 61.8151 1.67619 62.8101 2.51091C64.7843 4.21696 66.1647 6.50662 66.752 9.0489C67.3283 11.576 67.6347 14.1571 67.666 16.7489C68.7802 16.9536 69.7965 17.5184 70.5585 18.3567C71.3206 19.1949 71.7864 20.2602 71.8843 21.3888C71.9822 22.5175 71.7068 23.647 71.1005 24.604C70.4941 25.5609 69.5904 26.2923 68.528 26.6858C67.4657 27.0793 66.3035 27.1131 65.2201 26.782C64.1367 26.4509 63.1919 25.7733 62.531 24.8531C61.8701 23.933 61.5295 22.8214 61.5617 21.689C61.5939 20.5565 61.997 19.466 62.709 18.5849C63.5995 17.483 64.0969 16.1156 64.1225 14.6991C64.1481 13.2826 63.7003 11.8981 62.8502 10.7648C62.0001 9.63148 60.7962 8.81419 59.4291 8.44235C58.0621 8.07051 56.6101 8.16536 55.303 8.7119C53.852 9.3149 52.03 7.73791 52.277 7.46991Z" fill="#2F2E41"/>
<path d="M19.187 25.1319C15.6613 25.1089 12.1797 24.3464 8.96699 22.8939C8.77578 22.8088 8.61346 22.6698 8.49983 22.4941C8.38619 22.3183 8.32613 22.1132 8.32697 21.9039V13.1149C8.32724 12.827 8.44176 12.5509 8.64536 12.3473C8.84897 12.1437 9.12503 12.0292 9.41297 12.0289H28.962C29.2499 12.0292 29.526 12.1437 29.7296 12.3473C29.9332 12.5509 30.0477 12.827 30.048 13.1149V21.9039C30.0488 22.1132 29.9888 22.3183 29.8751 22.4941C29.7615 22.6698 29.5992 22.8088 29.408 22.8939C26.195 24.3466 22.713 25.109 19.187 25.1319Z" fill="#FF9100"/>
<path d="M19.184 18.0119C19.0391 18.012 18.8956 17.9831 18.762 17.9269L3.26199 11.3869C3.06208 11.3026 2.89203 11.1603 2.77374 10.9784C2.65545 10.7965 2.59435 10.5833 2.59833 10.3664C2.60231 10.1495 2.6712 9.93868 2.79608 9.76125C2.92097 9.58382 3.09614 9.44787 3.29901 9.37092L18.799 3.48992C19.0485 3.39423 19.3245 3.39423 19.574 3.48992L34.868 9.37092C35.0697 9.44853 35.2436 9.58452 35.3675 9.76151C35.4914 9.9385 35.5597 10.1484 35.5637 10.3645C35.5677 10.5805 35.5071 10.7928 35.3898 10.9742C35.2724 11.1556 35.1037 11.2979 34.905 11.3829L19.61 17.9229C19.4754 17.981 19.3305 18.0113 19.184 18.0119Z" fill="#FF9100"/>
<path d="M10.136 23.4919C10.9357 23.4919 11.584 22.8436 11.584 22.0439C11.584 21.2442 10.9357 20.5959 10.136 20.5959C9.33628 20.5959 8.68799 21.2442 8.68799 22.0439C8.68799 22.8436 9.33628 23.4919 10.136 23.4919Z" fill="white"/>
<path opacity="0.2" d="M34.959 10.4559L19.664 16.9959C19.5446 17.0466 19.4162 17.0727 19.2865 17.0727C19.1567 17.0727 19.0284 17.0466 18.909 16.9959L3.40896 10.4559C3.21408 10.3758 3.0515 10.2329 2.94696 10.0499C2.87869 10.1685 2.83642 10.3002 2.82293 10.4364C2.80945 10.5725 2.82508 10.71 2.86877 10.8396C2.91246 10.9693 2.98322 11.0881 3.07635 11.1884C3.16949 11.2886 3.28286 11.3679 3.40896 11.4209L18.909 17.9609C19.0283 18.0117 19.1567 18.0378 19.2865 18.0378C19.4162 18.0378 19.5446 18.0117 19.664 17.9609L34.959 11.4209C35.0844 11.3673 35.197 11.2878 35.2894 11.1875C35.3818 11.0872 35.4519 10.9685 35.4951 10.8391C35.5383 10.7098 35.5536 10.5727 35.5399 10.437C35.5263 10.3014 35.484 10.1701 35.416 10.0519C35.3123 10.2333 35.1517 10.3753 34.959 10.4559Z" fill="black"/>
<path d="M10.257 22.0389C10.2887 22.0389 10.32 22.0327 10.3493 22.0206C10.3785 22.0085 10.4051 21.9907 10.4274 21.9683C10.4498 21.946 10.4676 21.9194 10.4797 21.8902C10.4918 21.8609 10.498 21.8296 10.498 21.7979V13.7219L18.458 10.8219C18.4897 10.8224 18.5212 10.8166 18.5507 10.8049C18.5802 10.7932 18.607 10.7758 18.6298 10.7537C18.6525 10.7316 18.6707 10.7052 18.6833 10.6761C18.6959 10.6469 18.7026 10.6156 18.703 10.5839C18.7035 10.5522 18.6977 10.5207 18.686 10.4912C18.6743 10.4618 18.6569 10.4349 18.6348 10.4121C18.6127 10.3894 18.5863 10.3712 18.5572 10.3586C18.528 10.3461 18.4967 10.3394 18.465 10.3389L10.505 13.2389C10.4409 13.2374 10.3772 13.249 10.3178 13.2729C10.2583 13.2968 10.2042 13.3325 10.159 13.3779C10.1132 13.4227 10.0769 13.4763 10.0522 13.5353C10.0274 13.5944 10.0148 13.6579 10.015 13.7219V21.7959C10.0148 21.8278 10.0208 21.8595 10.0329 21.889C10.0449 21.9185 10.0627 21.9454 10.0852 21.968C10.1078 21.9906 10.1345 22.0085 10.164 22.0207C10.1935 22.0329 10.2251 22.0391 10.257 22.0389Z" fill="white"/>
</svg>
