<svg width="61" height="50" fill="none" xmlns="http://www.w3.org/2000/svg"><g opacity=".45" fill="#D67E09"><path opacity=".45" d="M41.79 27.445c1.418.414 2.886.627 4.363.634a13.71 13.71 0 0 0 5.468-1.119c-1.373 5.034-4.677 13.717-11.255 14.694a1.565 1.565 0 0 0-1.275 1.126l-1.437 5.141a1.56 1.56 0 0 0 1.293 1.968c.488.067.98.1 1.471.1 7.9 0 15.716-8.241 19.015-20.042 1.937-6.923 2.5-17.334-2.264-23.884C54.496 2.395 50.603.44 45.59.242h-.06a13.859 13.859 0 0 0-3.739 27.2v.003Z"/><path opacity=".45" d="M3.072 20.9a13.914 13.914 0 0 0 8.333 6.545c1.417.413 2.884.627 4.36.634a13.72 13.72 0 0 0 5.471-1.119c-1.375 5.034-4.677 13.717-11.255 14.694a1.562 1.562 0 0 0-1.275 1.126L7.27 47.921a1.56 1.56 0 0 0 1.29 1.968c.488.067.979.1 1.471.1 7.9 0 15.716-8.241 19.017-20.042 1.938-6.923 2.505-17.334-2.267-23.884C24.111 2.395 20.215.437 15.202.242h-.06A13.86 13.86 0 0 0 3.071 20.9Z"/></g></svg>