<svg width="250" height="246" viewBox="0 0 250 246" fill="none" xmlns="http://www.w3.org/2000/svg">
<path d="M52.3483 86.2814L52.3714 85.8171L52.3483 86.2814L214.514 94.3506L211.332 158.278L49.1664 150.209C30.8924 149.3 16.768 134.205 17.6441 116.597C18.5202 98.9894 34.0737 85.3713 52.3483 86.2814Z" fill="#F2F2F2" stroke="black"/>
<path d="M49.5253 84.6377L216.581 92.9538C216.582 92.9538 216.583 92.9539 216.584 92.954C217.108 92.9873 217.599 93.2255 217.949 93.617C218.299 94.0093 218.481 94.5241 218.455 95.0497C218.429 95.5753 218.197 96.0694 217.809 96.425C217.421 96.7799 216.91 96.9681 216.385 96.9492C216.384 96.9492 216.383 96.9491 216.382 96.9491L49.3281 88.6363C49.3274 88.6363 49.3267 88.6362 49.3259 88.6362C45.4034 88.4056 41.474 88.9542 37.7646 90.2505C34.0545 91.547 30.6381 93.5657 27.7125 96.1899C24.787 98.8142 22.4103 101.992 20.7198 105.54C19.0293 109.088 18.0585 112.936 17.8633 116.861C17.6682 120.786 18.2526 124.711 19.5828 128.409C20.9131 132.107 22.9628 135.505 25.6136 138.407C28.2644 141.308 31.4638 143.656 35.0269 145.314C38.5894 146.972 42.445 147.907 46.3711 148.067C46.3718 148.067 46.3726 148.067 46.3733 148.067L213.43 156.382L213.455 155.883L213.43 156.382C213.96 156.409 214.458 156.644 214.814 157.038C215.145 157.402 215.328 157.875 215.332 158.365L215.326 158.476C215.3 159.006 215.064 159.504 214.671 159.86C214.277 160.216 213.759 160.401 213.229 160.374L46.1696 152.062C37.2286 151.617 28.8306 147.638 22.823 141.002C16.8154 134.365 13.6903 125.613 14.1353 116.672C14.5803 107.731 18.5588 99.333 25.1957 93.3254C31.8326 87.3177 40.5842 84.1927 49.5253 84.6377Z" fill="#FF9100" stroke="black"/>
<path d="M39.5142 99.659L39.5112 99.6589L39.5112 99.6589L39.5112 99.6589L39.5112 99.6589L39.5112 99.6589L39.5112 99.6588L39.5112 99.6588L39.5112 99.6588L39.5112 99.6588L39.5112 99.6588L39.5112 99.6588L39.5137 99.6589L39.5142 99.659Z" fill="#CCCCCC" stroke="black"/>
<path d="M38.9214 111.644L38.9184 111.644L38.9183 111.644L38.9183 111.644L38.9183 111.644L38.9183 111.644L38.9183 111.644L38.9183 111.644L38.9183 111.644L38.9184 111.644L38.9183 111.644L38.9183 111.644L38.9208 111.644L38.9214 111.644Z" fill="#CCCCCC" stroke="black"/>
<mask id="path-5-inside-1_2_260" fill="white">
<path d="M213.101 132.834L38.2965 124.132C38.2307 124.129 38.1661 124.113 38.1064 124.085C38.0467 124.057 37.9931 124.018 37.9487 123.969C37.9043 123.92 37.87 123.863 37.8478 123.801C37.8255 123.739 37.8157 123.674 37.8189 123.608C37.8222 123.542 37.8384 123.477 37.8666 123.418C37.8949 123.358 37.9347 123.305 37.9836 123.261C38.0326 123.217 38.0898 123.183 38.1519 123.161C38.214 123.139 38.2799 123.129 38.3457 123.133L213.15 131.835C213.282 131.842 213.405 131.902 213.494 132C213.582 132.098 213.628 132.227 213.622 132.359C213.615 132.491 213.557 132.615 213.459 132.704C213.361 132.793 213.233 132.84 213.101 132.834V132.834Z"/>
</mask>
<path d="M213.101 132.834L38.2965 124.132C38.2307 124.129 38.1661 124.113 38.1064 124.085C38.0467 124.057 37.9931 124.018 37.9487 123.969C37.9043 123.92 37.87 123.863 37.8478 123.801C37.8255 123.739 37.8157 123.674 37.8189 123.608C37.8222 123.542 37.8384 123.477 37.8666 123.418C37.8949 123.358 37.9347 123.305 37.9836 123.261C38.0326 123.217 38.0898 123.183 38.1519 123.161C38.214 123.139 38.2799 123.129 38.3457 123.133L213.15 131.835C213.282 131.842 213.405 131.902 213.494 132C213.582 132.098 213.628 132.227 213.622 132.359C213.615 132.491 213.557 132.615 213.459 132.704C213.361 132.793 213.233 132.84 213.101 132.834V132.834Z" fill="#CCCCCC"/>
<path d="M38.2965 124.132L38.3462 123.133L38.3402 123.133L38.2965 124.132ZM38.3457 123.133L38.2911 124.132L38.296 124.132L38.3457 123.133ZM213.15 131.835L213.204 130.837L213.199 130.836L213.15 131.835ZM213.101 132.834L213.051 133.833L213.057 133.833L213.101 132.834ZM213.15 131.835L38.3462 123.133L38.2468 125.131L213.051 133.833L213.15 131.835ZM38.3402 123.133C38.4061 123.136 38.4707 123.152 38.5303 123.18L37.6824 124.991C37.8615 125.075 38.0553 125.122 38.2528 125.131L38.3402 123.133ZM38.5303 123.18C38.5898 123.207 38.6434 123.247 38.6879 123.296L37.2095 124.643C37.3428 124.789 37.5036 124.907 37.6824 124.991L38.5303 123.18ZM38.6879 123.296C38.7325 123.345 38.7667 123.402 38.7889 123.463L36.9066 124.139C36.9734 124.325 37.0762 124.496 37.2095 124.643L38.6879 123.296ZM38.7889 123.463C38.8112 123.525 38.821 123.591 38.8177 123.657L36.8201 123.559C36.8104 123.756 36.8398 123.953 36.9066 124.139L38.7889 123.463ZM38.8177 123.657C38.8145 123.723 38.7983 123.787 38.77 123.847L36.9633 122.989C36.8785 123.168 36.8299 123.361 36.8201 123.559L38.8177 123.657ZM38.77 123.847C38.7416 123.907 38.7018 123.96 38.6531 124.004L37.3142 122.518C37.1675 122.65 37.0482 122.81 36.9633 122.989L38.77 123.847ZM38.6531 124.004C38.6043 124.048 38.5472 124.082 38.4848 124.104L37.819 122.218C37.6323 122.284 37.4608 122.386 37.3142 122.518L38.6531 124.004ZM38.4848 124.104C38.4225 124.126 38.3567 124.135 38.2911 124.132L38.4004 122.135C38.2032 122.124 38.0056 122.152 37.819 122.218L38.4848 124.104ZM38.296 124.132L213.1 132.834L213.199 130.836L38.3954 122.134L38.296 124.132ZM213.095 132.834C212.963 132.826 212.839 132.767 212.751 132.669L214.237 131.33C213.971 131.036 213.6 130.858 213.204 130.837L213.095 132.834ZM212.751 132.669C212.662 132.571 212.617 132.441 212.623 132.31L214.621 132.408C214.64 132.013 214.502 131.625 214.237 131.33L212.751 132.669ZM212.623 132.31C212.63 132.178 212.688 132.054 212.786 131.965L214.133 133.443C214.426 133.176 214.601 132.804 214.621 132.408L212.623 132.31ZM212.786 131.965C212.883 131.876 213.012 131.829 213.144 131.835L213.057 133.833C213.453 133.85 213.84 133.71 214.133 133.443L212.786 131.965Z" fill="black" mask="url(#path-5-inside-1_2_260)"/>
<path d="M37.7248 135.619L37.7218 135.619L37.7218 135.619L37.7218 135.619L37.7217 135.619L37.7217 135.619L37.7218 135.619L37.7218 135.619L37.7218 135.619L37.7218 135.619L37.7218 135.619L37.7218 135.619L37.7243 135.619L37.7248 135.619Z" fill="#CCCCCC" stroke="black"/>
</svg>
